<?xml version="1.0" standalone="no"?>
<!DOCTYPE svg PUBLIC "-//W3C//DTD SVG 20010904//EN"
 "http://www.w3.org/TR/2001/REC-SVG-20010904/DTD/svg10.dtd">
<svg version="1.0" xmlns="http://www.w3.org/2000/svg"
 width="30" height="30" viewBox="0 0 599.000000 260.000000"
 preserveAspectRatio="xMidYMid meet">

<g transform="translate(0.000000,260.000000) scale(0.100000,-0.100000)"
fill="#000000" stroke="none">
<path d="M2 1778 l3 -823 32 -67 c40 -85 100 -150 172 -185 52 -26 66 -28 209
-31 l153 -4 -22 43 c-12 24 -32 70 -44 103 l-23 60 -63 11 c-80 13 -129 41
-151 85 -17 32 -18 93 -18 833 l0 797 -125 0 -126 0 3 -822z"/>
<path d="M1690 2594 c-155 -13 -362 -70 -490 -134 -234 -118 -462 -346 -580
-580 -85 -169 -133 -376 -133 -580 0 -204 48 -411 133 -580 118 -234 346 -462
580 -580 169 -85 376 -133 580 -133 204 0 411 48 580 133 234 118 462 346 580
580 85 169 133 376 133 580 0 204 -48 411 -133 580 -118 234 -346 462 -579
580 -186 93 -471 150 -671 134z m410 -202 c412 -110 717 -421 817 -834 25
-103 25 -383 0 -486 -92 -380 -356 -673 -725 -806 -214 -76 -507 -75 -723 4
-351 128 -609 409 -707 768 -23 88 -26 114 -26 277 0 163 3 189 26 277 82 301
279 552 548 697 117 63 216 96 370 125 14 2 97 3 185 1 119 -3 179 -8 235 -23z"/>
<path d="M1673 1930 c-233 -42 -420 -205 -499 -435 -24 -69 -28 -96 -28 -195
0 -99 4 -126 28 -195 70 -202 209 -341 411 -411 69 -24 96 -28 195 -28 99 0
126 4 195 28 202 70 341 209 411 411 24 69 28 96 28 195 0 99 -4 126 -28 195
-69 202 -210 343 -408 409 -87 30 -221 41 -305 26z m232 -85 c85 -23 152 -62
220 -130 68 -68 107 -135 130 -220 30 -116 14 -253 -43 -359 -34 -65 -133
-164 -198 -198 -143 -77 -325 -77 -468 0 -65 34 -164 133 -198 198 -77 143
-77 325 0 468 35 65 133 164 198 198 105 57 243 73 359 43z"/>
<path d="M3642 2000 c-229 -60 -413 -235 -489 -465 -23 -70 -27 -96 -27 -210
0 -114 4 -140 27 -210 37 -113 90 -198 177 -285 267 -269 713 -269 980 0 87
87 140 172 177 285 23 70 27 96 27 210 0 114 -4 140 -27 210 -37 113 -90 198
-177 285 -87 88 -195 149 -316 180 -102 26 -252 26 -352 0z m379 -242 c160
-78 269 -249 269 -423 0 -174 -108 -344 -269 -423 -75 -37 -77 -37 -201 -37
-124 0 -126 0 -201 37 -236 115 -333 391 -221 627 31 65 119 162 178 197 89
52 140 65 259 61 104 -2 114 -5 186 -39z"/>
<path d="M5100 1997 c-86 -26 -168 -66 -222 -108 -20 -16 -39 -29 -42 -29 -3
0 -6 32 -6 70 l0 70 -130 0 -130 0 0 -945 0 -945 130 0 130 0 0 340 c0 187 3
340 6 340 3 0 22 -13 42 -29 146 -116 389 -162 586 -111 232 59 416 233 493
465 23 70 27 96 27 210 0 114 -4 140 -27 210 -37 113 -90 198 -177 285 -87 88
-195 149 -316 180 -109 28 -263 27 -364 -3z m391 -239 c160 -78 269 -249 269
-423 0 -174 -108 -344 -269 -423 -75 -37 -77 -37 -201 -37 -124 0 -126 0 -201
37 -236 115 -333 391 -221 627 31 65 119 162 178 197 89 52 140 65 259 61 104
-2 114 -5 186 -39z"/>
</g>
</svg>
