<?xml version="1.0" standalone="no"?>
<!DOCTYPE svg PUBLIC "-//W3C//DTD SVG 20010904//EN"
 "http://www.w3.org/TR/2001/REC-SVG-20010904/DTD/svg10.dtd">
<svg version="1.0" xmlns="http://www.w3.org/2000/svg"
 width="30" height="30" viewBox="0 0 225.000000 225.000000"
 preserveAspectRatio="xMidYMid meet">

<g transform="translate(0.000000,225.000000) scale(0.100000,-0.100000)"
fill="#003366" stroke="none">
<path d="M940 1813 c-8 -3 -75 -30 -147 -61 -150 -64 -159 -75 -89 -116 25
-14 54 -38 66 -53 21 -26 21 -31 18 -539 -2 -380 -6 -516 -15 -525 -6 -6 -35
-14 -63 -17 -49 -4 -51 -6 -48 -33 l3 -29 233 -2 232 -3 0 33 c0 32 -1 32 -47
32 -27 0 -54 4 -62 9 -22 14 -30 87 -31 285 l0 188 23 -6 c248 -74 463 36 548
282 27 76 35 195 20 274 -33 168 -161 280 -321 280 -87 0 -150 -21 -218 -72
-29 -22 -54 -40 -56 -40 -2 0 -6 23 -9 52 -7 56 -14 68 -37 61z m300 -128
c163 -84 205 -491 64 -615 -65 -57 -145 -61 -238 -11 -73 39 -76 50 -76 326
l0 236 33 30 c58 54 150 68 217 34z"/>
</g>
</svg>
